<svg width="77" height="68" viewBox="0 0 77 68" fill="none" xmlns="http://www.w3.org/2000/svg">
<path d="M11.6524 9.67181H65.8425C66.4755 9.67151 67.1079 9.71167 67.7357 9.79204C67.5229 8.29804 67.0097 6.86262 66.2271 5.57231C65.4446 4.28201 64.4088 3.16354 63.1823 2.28436C61.9557 1.40517 60.5639 0.783474 59.0906 0.456748C57.6173 0.130022 56.0931 0.105036 54.6099 0.383294L10.0436 7.99192H9.99281C7.19537 8.52687 4.70769 10.1096 3.03785 12.4169C5.55362 10.6275 8.56514 9.66782 11.6524 9.67181ZM65.8425 13.7361H11.6524C8.77892 13.7392 6.02405 14.8821 3.99221 16.9139C1.96037 18.9457 0.817499 21.7006 0.814362 24.5741V57.0881C0.817499 59.9616 1.96037 62.7164 3.99221 64.7483C6.02405 66.7801 8.77892 67.923 11.6524 67.9261H65.8425C68.7159 67.923 71.4708 66.7801 73.5026 64.7483C75.5345 62.7164 76.6774 59.9616 76.6805 57.0881V24.5741C76.6774 21.7006 75.5345 18.9457 73.5026 16.9139C71.4708 14.8821 68.7159 13.7392 65.8425 13.7361ZM57.7986 46.2501C56.7269 46.2501 55.6791 45.9323 54.788 45.3368C53.8968 44.7414 53.2023 43.8951 52.7921 42.9049C52.382 41.9147 52.2747 40.8251 52.4837 39.7739C52.6928 38.7227 53.209 37.7571 53.9668 36.9993C54.7247 36.2414 55.6903 35.7253 56.7414 35.5162C57.7926 35.3071 58.8822 35.4144 59.8724 35.8246C60.8626 36.2347 61.7089 36.9293 62.3044 37.8205C62.8998 38.7116 63.2176 39.7593 63.2176 40.8311C63.2176 42.2683 62.6467 43.6466 61.6304 44.6629C60.6142 45.6792 59.2358 46.2501 57.7986 46.2501Z" fill="black" fill-opacity="0.5"/>
</svg>
