<svg width="131" height="130" viewBox="0 0 131 130" fill="none" xmlns="http://www.w3.org/2000/svg">
<rect x="0.299988" width="130" height="130" rx="26" fill="#FF971A" fill-opacity="0.15"/>
<path d="M88.5777 58.8854C89.5513 52.3286 84.5954 48.8041 77.8186 46.4529L80.0171 37.5712L74.6495 36.224L72.5094 44.8719C71.0983 44.5174 69.6491 44.1834 68.2088 43.8522L70.3645 35.1472L65.0002 33.8L62.8006 42.6789C61.6329 42.4111 60.486 42.1464 59.3732 41.8675L59.3795 41.8396L51.9774 39.9778L50.5496 45.7523C50.5496 45.7523 54.5319 46.6718 54.448 46.7284C56.6215 47.2749 57.0146 48.7242 56.9493 49.8729L54.4451 59.9913C54.5948 60.0296 54.7889 60.085 55.0031 60.1717C54.8241 60.1269 54.6335 60.078 54.4358 60.0303L50.9257 74.2047C50.66 74.8699 49.9858 75.8681 48.4661 75.4891C48.5199 75.5676 44.5649 74.5084 44.5649 74.5084L41.9 80.6972L48.885 82.4512C50.1845 82.7794 51.4579 83.1228 52.7119 83.4458L50.4908 92.4294L55.8521 93.7766L58.0518 84.8884C59.5165 85.2889 60.9379 85.6583 62.3294 86.0065L60.1371 94.8529L65.505 96.2001L67.7259 87.2333C76.8788 88.9781 83.761 88.2746 86.6578 79.9357C88.9921 73.2219 86.5416 69.3494 81.7263 66.8241C85.2336 66.0094 87.8734 63.6851 88.5777 58.8854ZM76.314 76.2072C74.6552 82.921 63.4328 79.2917 59.7943 78.3817L62.7418 66.4799C66.38 67.3948 78.0474 69.2054 76.314 76.2072ZM77.974 58.7881C76.4608 64.895 67.1203 61.7925 64.0903 61.0317L66.7626 50.2375C69.7926 50.9983 79.5499 52.4182 77.974 58.7881Z" fill="#F7931A"/>
</svg>
