<svg width="220" height="92" viewBox="0 0 220 92" fill="none" xmlns="http://www.w3.org/2000/svg">
<path d="M5.78619 82.369L1.29999 78.2287V89.0001C1.29999 90.436 2.46405 91.6001 3.89999 91.6001H217.1C218.536 91.6001 219.7 90.436 219.7 89.0001V47.5858L216.252 59.0415C216.095 59.5626 215.779 60.0214 215.347 60.3532L212.475 62.5623C211.001 63.6961 208.848 62.9606 208.375 61.1619L203.977 44.4181C203.677 43.2753 202.644 42.4787 201.462 42.4787H199.613C198.412 42.4787 197.367 41.6554 197.085 40.4873L195.235 32.8034C194.737 30.733 191.979 30.3083 190.881 32.1328C190.45 32.8483 189.676 33.2858 188.841 33.2858H179.59C178.823 33.2858 178.096 32.9475 177.602 32.3613L176.016 30.4798C174.75 28.9768 172.338 29.3687 171.612 31.1953L168.085 40.0723C167.152 42.4205 163.757 42.1925 163.146 39.7408L157.928 18.7914C157.794 18.2541 157.492 17.7736 157.066 17.4198L151.334 12.6588C150.71 12.1402 149.879 11.9429 149.088 12.1254L143.484 13.4185C142.314 13.6885 141.111 13.122 140.574 12.048L137.152 5.20501C136.197 3.29727 133.479 3.28665 132.51 5.18687L127.937 14.1544C127.155 15.6893 124.944 15.6369 124.235 14.0665C123.498 12.4347 121.172 12.4606 120.472 14.1084L117.614 20.8345C116.677 23.0384 113.512 22.9117 112.754 20.64L108.766 8.67655C107.954 6.24226 104.481 6.33052 103.794 8.80289L99.2236 25.2532C98.9109 26.3785 97.8864 27.1572 96.7185 27.1572H95.4764C94.3224 27.1572 93.3065 27.9178 92.9816 29.0251L84.0635 59.4145C83.9803 59.6981 83.8494 59.9653 83.6764 60.2049L74.1028 73.4581C73.106 74.8381 71.0739 74.9037 69.9902 73.5909L67.4664 70.5339C66.733 69.6455 65.5024 69.3456 64.4425 69.7971L58.0035 72.5398C57.1572 72.9003 56.5643 73.6812 56.4445 74.5933L55.4592 82.0958C55.2892 83.3898 54.1864 84.3572 52.8813 84.3572H48.5463C47.6178 84.3572 46.7598 83.8621 46.2952 83.0581L40.3342 72.743C39.3582 71.0541 36.939 71.0015 35.8906 72.6464L29.0364 83.4002C28.0903 84.8845 25.9736 85.0195 24.8466 83.6674L18.2007 75.6938C17.114 74.39 15.0898 74.4602 14.0959 75.836L9.65717 81.9808C8.74422 83.2446 6.93192 83.4264 5.78619 82.369Z" fill="url(#paint0_linear_14_8)"/>
<path d="M1.29999 78.2287L5.78619 82.369C6.93192 83.4264 8.74422 83.2447 9.65717 81.9808L14.0959 75.836C15.0898 74.4602 17.114 74.39 18.2007 75.6938L24.8466 83.6674C25.9736 85.0195 28.0903 84.8845 29.0364 83.4002L35.8906 72.6464C36.939 71.0015 39.3582 71.0541 40.3342 72.743L46.2952 83.0582C46.7598 83.8621 47.6178 84.3572 48.5464 84.3572H52.8813C54.1864 84.3572 55.2892 83.3898 55.4592 82.0958L56.4445 74.5933C56.5643 73.6812 57.1572 72.9003 58.0035 72.5398L64.4425 69.7971C65.5024 69.3456 66.733 69.6455 67.4664 70.5339L69.9902 73.5909C71.0739 74.9037 73.106 74.8381 74.1028 73.4581L83.6764 60.2049C83.8494 59.9654 83.9803 59.6981 84.0636 59.4145L92.9816 29.0251C93.3065 27.9179 94.3224 27.1572 95.4764 27.1572H96.7185C97.8864 27.1572 98.9109 26.3785 99.2236 25.2532L103.794 8.80289C104.481 6.33052 107.954 6.24226 108.766 8.67655L112.754 20.64C113.512 22.9117 116.677 23.0384 117.614 20.8345L120.472 14.1084C121.172 12.4606 123.498 12.4347 124.235 14.0665V14.0665C124.944 15.6369 127.155 15.6893 127.937 14.1544L132.51 5.18687C133.479 3.28665 136.197 3.29727 137.152 5.20501L140.574 12.048C141.111 13.122 142.314 13.6885 143.484 13.4185L149.088 12.1254C149.879 11.9429 150.71 12.1402 151.334 12.6588L157.066 17.4198C157.492 17.7736 157.794 18.2541 157.928 18.7914L163.146 39.7408C163.757 42.1925 167.152 42.4205 168.085 40.0723L171.612 31.1953C172.338 29.3687 174.75 28.9768 176.016 30.4798L177.602 32.3613C178.096 32.9475 178.823 33.2858 179.59 33.2858H188.841C189.676 33.2858 190.45 32.8483 190.881 32.1328V32.1328C191.979 30.3084 194.737 30.733 195.235 32.8034L197.085 40.4873C197.367 41.6554 198.412 42.4787 199.613 42.4787H201.462C202.644 42.4787 203.677 43.2754 203.977 44.4181L208.375 61.1619C208.848 62.9606 211.001 63.6961 212.475 62.5623L215.229 60.4445C215.733 60.057 216.077 59.4982 216.197 58.8739L218.4 47.4001" stroke="#40BF6A" stroke-width="2.6" stroke-linecap="round"/>
<defs>
<linearGradient id="paint0_linear_14_8" x1="110.5" y1="0.600098" x2="110.5" y2="91.6001" gradientUnits="userSpaceOnUse">
<stop stop-color="#40BF6A" stop-opacity="0.2"/>
<stop offset="1" stop-color="#40BF6A" stop-opacity="0"/>
</linearGradient>
</defs>
</svg>
