<svg width="19" height="15" viewBox="0 0 19 15" fill="none" xmlns="http://www.w3.org/2000/svg">
<path d="M9.35022 14.0227C8.95246 14.0207 8.56013 13.9302 8.20171 13.7577C7.84328 13.5852 7.52774 13.3351 7.27799 13.0255L0.71853 5.07934C0.335237 4.60096 0.0940353 4.02452 0.0224127 3.41573C-0.0492099 2.80693 0.0516268 2.19026 0.313433 1.63598C0.525765 1.15427 0.87227 0.743847 1.31156 0.453748C1.75085 0.163648 2.26436 0.00612801 2.79076 0H15.9097C16.4361 0.00612801 16.9496 0.163648 17.3889 0.453748C17.8282 0.743847 18.1747 1.15427 18.387 1.63598C18.6488 2.19026 18.7497 2.80693 18.678 3.41573C18.6064 4.02452 18.3652 4.60096 17.9819 5.07934L11.4224 13.0255C11.1727 13.3351 10.8572 13.5852 10.4987 13.7577C10.1403 13.9302 9.74798 14.0207 9.35022 14.0227Z" fill="#A4AFCE"/>
</svg>
