<svg width="66" height="64" viewBox="0 0 66 64" fill="none" xmlns="http://www.w3.org/2000/svg">
<path d="M64.0488 23.9439L63.209 23.1041C63.7523 21.9752 63.9385 20.7075 63.743 19.47C63.5475 18.2325 62.9794 17.084 62.1145 16.1776C61.5244 15.5904 60.8159 15.1357 60.0361 14.8441C59.2564 14.5525 58.4234 14.4305 57.5928 14.4863C56.8122 14.532 56.0456 14.7142 55.328 15.0248V0.888062H0.895996V63.0961H55.328V31.6421L61.335 25.6352L61.8482 26.1465C61.9152 26.2134 61.9685 26.293 62.0048 26.3805C62.0411 26.4681 62.0597 26.562 62.0597 26.6568C62.0597 26.7515 62.0411 26.8454 62.0048 26.933C61.9685 27.0205 61.9152 27.1001 61.8482 27.1671L57.2739 31.7432C56.9821 32.0348 56.8181 32.4303 56.8179 32.8428C56.8177 33.2554 56.9814 33.6511 57.273 33.9429C57.5645 34.2347 57.9601 34.3987 58.3726 34.3989C58.7851 34.3991 59.1808 34.2354 59.4726 33.9438L64.0488 29.3677C64.7675 28.6481 65.1711 27.6728 65.1711 26.6558C65.1711 25.6388 64.7675 24.6634 64.0488 23.9439ZM12.56 12.9409H43.6679V16.0513H12.56V12.9409ZM12.56 20.7169H43.6679V23.8273H12.56V20.7169ZM12.56 28.4929H32.972V31.6033H12.56V28.4929ZM41.3137 55.1179H26.1447C24.3912 55.1179 22.7504 54.9507 21.8795 53.516C20.9872 52.0483 21.8737 50.3434 22.5211 49.0954C22.6357 48.8757 22.3811 48.6035 22.0895 48.9049C21.2341 49.7836 19.8733 51.366 18.7789 52.6373C17.6222 53.9826 17.1634 54.5094 16.9184 54.731C16.6593 55.0321 16.3073 55.2383 15.918 55.3171C15.5287 55.396 15.1242 55.343 14.7684 55.1665C14.4489 54.982 14.1986 54.6979 14.0557 54.3578C13.9129 54.0176 13.8853 53.6401 13.9772 53.2828C14.0588 52.7968 15.4468 47.3885 16.7046 42.5266C15.0328 45.4951 9.72565 54.385 9.47681 54.803C9.29172 55.1131 8.99101 55.337 8.64084 55.4254C8.29067 55.5138 7.91972 55.4595 7.6096 55.2744C7.29948 55.0893 7.07559 54.7886 6.98718 54.4384C6.89877 54.0882 6.95309 53.7173 7.13818 53.4072C7.20622 53.2964 13.8547 42.1553 14.6926 40.5379C14.9657 39.8914 15.4741 39.3726 16.1149 39.0865C16.7558 38.8003 17.4814 38.7681 18.1451 38.9963C18.7442 39.2398 19.2287 39.7013 19.5011 40.2879C19.7735 40.8744 19.8134 41.5424 19.6128 42.1572C18.913 44.8555 18.1995 47.6238 17.6494 49.7777C18.5378 48.7513 19.467 47.6976 20.1377 47.0075C20.6539 46.387 21.3592 45.9527 22.1456 45.7712C22.9321 45.5897 23.7564 45.6709 24.4923 46.0025C24.9495 46.2353 25.3158 46.6144 25.5328 47.0793C25.7498 47.5443 25.8051 48.0685 25.6898 48.5686C25.5041 49.1879 25.2512 49.785 24.9355 50.3493C24.4165 51.4282 24.6633 52.3943 26.1447 52.3943H41.3137C41.6746 52.3943 42.0207 52.5377 42.2759 52.7929C42.5311 53.0481 42.6745 53.3942 42.6745 53.7551C42.6745 54.1161 42.5311 54.4622 42.2759 54.7174C42.0207 54.9726 41.6746 55.1179 41.3137 55.1179ZM37.2702 45.3007L32.208 46.6362C32.1344 46.6571 32.0564 46.6576 31.9825 46.6378C31.9086 46.6179 31.8414 46.5784 31.7881 46.5235C31.7323 46.4708 31.692 46.4037 31.6718 46.3296C31.6515 46.2555 31.6521 46.1773 31.6734 46.1036L32.9642 41.0511L45.7752 28.2401L50.052 32.5169L37.2702 45.3007ZM59.5601 23.0088L52.2506 30.3183L47.9738 26.0415L55.2833 18.732C55.937 18.0599 56.8166 17.654 57.7522 17.5929L57.9271 17.587C58.2942 17.5805 58.659 17.647 59.0001 17.7829C59.3412 17.9187 59.6518 18.1211 59.9139 18.3782C60.4758 19.0415 60.7537 19.8994 60.6875 20.7662C60.6213 21.6329 60.2162 22.4386 59.5601 23.0088Z" fill="#A4AFCE"/>
</svg>
