<svg width="125" height="125" viewBox="0 0 125 125" fill="none" xmlns="http://www.w3.org/2000/svg">
<path d="M62.22 124.44C96.5832 124.44 124.44 96.5832 124.44 62.22C124.44 27.8569 96.5832 0 62.22 0C27.8569 0 0 27.8569 0 62.22C0 96.5832 27.8569 124.44 62.22 124.44Z" fill="#2240C4"/>
<path d="M62.22 117.746C92.8864 117.746 117.746 92.8864 117.746 62.22C117.746 31.5536 92.8864 6.6936 62.22 6.6936C31.5536 6.6936 6.6936 31.5536 6.6936 62.22C6.6936 92.8864 31.5536 117.746 62.22 117.746Z" fill="white"/>
<path d="M37.7592 34.0488V91.4096C37.7592 92.2552 38.3648 92.98 39.1968 93.1296L66.9696 98.1336C68.0416 98.3272 69.0272 97.5032 69.0272 96.4136V29.0448C69.0272 27.9552 68.0416 27.1312 66.9696 27.3248L39.1968 32.3288C38.3648 32.4784 37.7592 33.2032 37.7592 34.0488Z" fill="#2240C4"/>
<path d="M75.3856 65.2217H88.3152L88.4144 70.6777C88.4256 71.2777 89.1352 71.5889 89.5832 71.1897L102.358 62.6009C102.686 62.3089 102.67 61.7905 102.322 61.5209L89.2496 53.8041C88.7832 53.4425 88.1064 53.7825 88.1168 54.3721L88.216 59.8025H75.3848C74.7992 59.8025 74.324 60.2777 74.324 60.8633V64.1593C74.3248 64.7465 74.8 65.2217 75.3856 65.2217Z" fill="#2240C4"/>
<path d="M79.9416 69.2144V87.7464C79.9416 88.3592 79.4448 88.856 78.832 88.856H72.108C71.4952 88.856 70.9992 89.3528 70.9992 89.9648V91.552C70.9992 92.1648 71.496 92.6616 72.1088 92.6616H82.6384C83.2512 92.6616 83.748 92.1648 83.748 91.552V69.2464C83.748 68.9224 83.4872 68.6584 83.1632 68.6544L80.5408 68.6224C80.2112 68.6184 79.9416 68.884 79.9416 69.2144Z" fill="#2240C4"/>
<path d="M72.109 36.3216H78.833C79.4458 36.3216 79.9426 36.8184 79.9426 37.4312V56.3048C79.9426 56.6336 80.2106 56.8992 80.5386 56.8968L83.1602 56.8784C83.4858 56.876 83.7482 56.612 83.7482 56.2864V33.6256C83.7482 33.0128 83.2514 32.516 82.6386 32.516H72.109C71.4962 32.516 71.0002 33.0128 71.0002 33.6256V35.2128C70.9994 35.8248 71.4962 36.3216 72.109 36.3216Z" fill="#2240C4"/>
<path d="M66.9696 27.3248L52.8216 29.8736V95.5848L66.9696 98.1336C68.0416 98.3272 69.0272 97.5032 69.0272 96.4136V29.0448C69.0272 27.9552 68.0416 27.1312 66.9696 27.3248Z" fill="#2240C4"/>
</svg>
