<svg width="38" height="29" viewBox="0 0 38 29" fill="none" xmlns="http://www.w3.org/2000/svg">
<path d="M18.7004 28.0454C17.9049 28.0414 17.1203 27.8603 16.4034 27.5154C15.6866 27.1704 15.0555 26.6702 14.556 26.0511L1.43706 10.1587C0.670474 9.20191 0.188071 8.04904 0.0448254 6.83145C-0.0984198 5.61386 0.103254 4.38051 0.626866 3.27197C1.05153 2.30853 1.74454 1.48769 2.62312 0.907495C3.5017 0.327295 4.52872 0.012256 5.58152 0H31.8194C32.8722 0.012256 33.8992 0.327295 34.7778 0.907495C35.6563 1.48769 36.3493 2.30853 36.774 3.27197C37.2976 4.38051 37.4993 5.61386 37.3561 6.83145C37.2128 8.04904 36.7304 9.20191 35.9638 10.1587L22.8449 26.0511C22.3454 26.6702 21.7143 27.1704 20.9975 27.5154C20.2806 27.8603 19.496 28.0414 18.7004 28.0454Z" fill="#A4AFCE"/>
</svg>
