<svg width="60" height="96" viewBox="0 0 60 96" fill="none" xmlns="http://www.w3.org/2000/svg">
<path d="M30.1412 0.519908V0.567199C30.1885 0.803652 30.1885 1.0874 30.1885 1.37114V35.4677C30.1412 35.6569 29.9993 35.7042 29.8575 35.7987C28.8644 36.2716 27.9186 36.6973 26.9255 37.1229C25.554 37.7377 24.1353 38.3997 22.7639 39.0145L17.7984 41.2844C16.4269 41.8992 15.0555 42.514 13.7314 43.1288C12.1235 43.8854 10.4683 44.5948 8.86043 45.3514C7.489 45.9662 6.11757 46.6283 4.69885 47.2431C3.56388 47.7633 2.4289 48.2362 1.34122 48.7564C1.24663 48.8037 1.15205 48.851 1.05747 48.851C1.01018 48.851 1.01018 48.8509 0.962891 48.8037L2.23974 46.6756C4.69885 42.6086 7.11067 38.5889 9.56979 34.5219C12.1708 30.1711 14.819 25.8204 17.42 21.4697C19.8319 17.45 22.291 13.4303 24.7028 9.41055C26.4525 6.47853 28.2496 3.54651 29.9993 0.61449C30.0466 0.519908 30.0939 0.472618 30.0939 0.378036H30.1412C30.0939 0.425327 30.1412 0.472618 30.1412 0.519908Z" fill="#8A92B2"/>
<path d="M59.1779 48.8039L59.2252 48.8512L52.2735 52.9655L30.4252 65.8758C30.3306 65.9231 30.236 65.9704 30.1887 66.0177C30.0469 66.0177 30.0469 65.8758 30.0469 65.8286V65.4029V36.1773C30.0469 36.0354 30.0469 35.8463 30.0942 35.7044C30.1415 35.5153 30.2833 35.5625 30.4252 35.6098C31.04 35.8936 31.702 36.1773 32.3168 36.4611C34.1612 37.3123 36.0055 38.1635 37.8498 38.9675C39.4577 39.6768 41.0183 40.4335 42.6262 41.1428C44.2341 41.8522 45.842 42.6088 47.4498 43.3182C48.8213 43.933 50.24 44.5951 51.6114 45.2098C52.9828 45.8246 54.4016 46.4867 55.773 47.1015C56.8607 47.5744 57.9484 48.0946 59.036 48.5675C59.036 48.7093 59.0833 48.7566 59.1779 48.8039Z" fill="#454A75"/>
<path d="M30.1412 95.3852C30.1412 95.4325 30.0939 95.4798 30.0939 95.5271H30.0466C30.0466 95.4325 29.9521 95.3852 29.9048 95.2906C26.9727 91.1763 24.0407 87.0147 21.1087 82.9004C18.1294 78.6916 15.1028 74.4354 12.1235 70.2265C9.23876 66.1595 6.30673 62.0453 3.422 57.9783C2.66535 56.8906 1.9087 55.8502 1.15205 54.7625C1.10476 54.6679 1.05747 54.6206 0.962891 54.4788C1.10476 54.4788 1.19934 54.5733 1.24663 54.6206C5.36092 57.0325 9.42792 59.4443 13.5422 61.8561C18.2713 64.6462 22.953 67.4364 27.6821 70.2265L30.0939 71.6453C30.1885 71.7398 30.1885 71.8344 30.1885 71.929V94.7231C30.1885 94.9596 30.1885 95.196 30.1412 95.3852Z" fill="#8A92B2"/>
<path d="M0.916016 48.8985V48.8512C2.42932 48.1892 3.89533 47.4798 5.40863 46.8177C7.34754 45.9192 9.28646 45.068 11.2254 44.1695C12.6914 43.5074 14.2047 42.798 15.6707 42.136C17.8461 41.1429 19.9742 40.1971 22.1495 39.204C23.6155 38.5419 25.0815 37.8798 26.5948 37.1705C27.6352 36.6976 28.7229 36.2246 29.7633 35.7517C29.8579 35.7044 29.9998 35.6572 30.0471 35.5626C30.0944 35.5626 30.0944 35.6099 30.0471 35.6572V65.6867C30.0471 65.8286 29.9998 65.9705 30.0944 66.065C29.9998 66.2069 29.9052 66.065 29.8579 66.0177C29.4323 65.7813 29.0067 65.5448 28.581 65.2611C19.454 59.87 10.2796 54.4315 1.15247 49.0404C1.10518 48.9931 1.0106 48.9458 0.916016 48.8985Z" fill="#62688F"/>
<path d="M59.0829 54.4788H59.1302C59.1302 54.5733 59.0356 54.6679 58.9883 54.7625C50.2869 67.0108 41.5854 79.3064 32.8839 91.5546C31.9854 92.8315 31.0396 94.1083 30.141 95.3852C30.0938 95.3379 30.0938 95.2906 30.0938 95.2433V94.9596V72.0236V71.598C32.08 70.4157 34.0189 69.2807 36.0051 68.0985C43.6662 63.5586 51.3273 59.0659 58.941 54.526C58.9883 54.5733 59.0356 54.526 59.0829 54.4788Z" fill="#62688F"/>
<path d="M30.0946 35.6571V35.5625V35.2788V0.945769C30.0946 0.803897 30.0473 0.709316 30.1419 0.567444C39.7419 16.5044 49.3419 32.394 58.8946 48.331C58.9892 48.4729 59.131 48.662 59.1783 48.8512C58.5163 48.6147 57.9015 48.2837 57.2867 48C56.5301 47.6689 55.7261 47.2906 54.9695 46.9596C54.4966 46.7231 53.9764 46.5339 53.5035 46.2975C52.6995 45.9192 51.8956 45.5881 51.0916 45.2098C50.6187 45.0206 50.1458 44.7842 49.6729 44.5477L46.5517 43.129C46.0315 42.8926 45.5113 42.6561 44.9438 42.4197L42.6739 41.4266C42.201 41.2374 41.7281 41.0009 41.2552 40.7645L38.134 39.3458C37.6138 39.1093 37.0936 38.8729 36.5261 38.6364L34.2562 37.6433C33.736 37.4068 33.2631 37.1704 32.7429 36.9339C31.8443 36.5083 30.9458 36.0827 30 35.7044C30.1419 35.6571 30.0946 35.6571 30.0946 35.6571Z" fill="#62688F"/>
</svg>
