<svg width="125" height="125" viewBox="0 0 125 125" fill="none" xmlns="http://www.w3.org/2000/svg">
<path d="M62.22 124.44C96.5832 124.44 124.44 96.5832 124.44 62.22C124.44 27.8569 96.5832 0 62.22 0C27.8568 0 0 27.8569 0 62.22C0 96.5832 27.8568 124.44 62.22 124.44Z" fill="#2240C4"/>
<path d="M62.5264 118.053C93.1928 118.053 118.053 93.1928 118.053 62.5264C118.053 31.86 93.1928 7 62.5264 7C31.86 7 7 31.86 7 62.5264C7 93.1928 31.86 118.053 62.5264 118.053Z" fill="white"/>
<path d="M61.82 84.6C63.08 84.6 64.1456 84.1644 65.0168 83.2932C65.888 82.422 66.3224 81.3576 66.32 80.1C66.32 78.84 65.8856 77.7744 65.0168 76.9032C64.148 76.032 63.0824 75.5976 61.82 75.6C60.56 75.6 59.4956 76.0356 58.6268 76.9068C57.758 77.778 57.3224 78.8424 57.32 80.1C57.32 81.36 57.7556 82.4256 58.6268 83.2968C59.498 84.168 60.5624 84.6024 61.82 84.6ZM58.58 70.74H65.24C65.24 68.76 65.4656 67.2 65.9168 66.06C66.368 64.92 67.6424 63.36 69.74 61.38C71.3 59.82 72.53 58.3344 73.43 56.9232C74.33 55.512 74.78 53.8176 74.78 51.84C74.78 48.48 73.55 45.9 71.09 44.1C68.63 42.3 65.72 41.4 62.36 41.4C58.94 41.4 56.1644 42.3 54.0332 44.1C51.902 45.9 50.4176 48.06 49.58 50.58L55.52 52.92C55.82 51.84 56.4956 50.67 57.5468 49.41C58.598 48.15 60.2024 47.52 62.36 47.52C64.28 47.52 65.72 48.0456 66.68 49.0968C67.64 50.148 68.12 51.3024 68.12 52.56C68.12 53.76 67.76 54.8856 67.04 55.9368C66.32 56.988 65.42 57.9624 64.34 58.86C61.7 61.2 60.08 62.97 59.48 64.17C58.88 65.37 58.58 67.56 58.58 70.74ZM62 99C57.02 99 52.34 98.0544 47.96 96.1632C43.58 94.272 39.77 91.7076 36.53 88.47C33.29 85.23 30.7256 81.42 28.8368 77.04C26.948 72.66 26.0024 67.98 26 63C26 58.02 26.9456 53.34 28.8368 48.96C30.728 44.58 33.2924 40.77 36.53 37.53C39.77 34.29 43.58 31.7256 47.96 29.8368C52.34 27.948 57.02 27.0024 62 27C66.98 27 71.66 27.9456 76.04 29.8368C80.42 31.728 84.23 34.2924 87.47 37.53C90.71 40.77 93.2756 44.58 95.1668 48.96C97.058 53.34 98.0024 58.02 98 63C98 67.98 97.0544 72.66 95.1632 77.04C93.272 81.42 90.7076 85.23 87.47 88.47C84.23 91.71 80.42 94.2756 76.04 96.1668C71.66 98.058 66.98 99.0024 62 99Z" fill="#2240C4"/>
</svg>
