<svg width="70" height="71" viewBox="0 0 70 71" fill="none" xmlns="http://www.w3.org/2000/svg">
<path d="M4.99316 18.259C14.5632 1.68644 35.7525 -3.99286 52.3251 5.57714C58.8913 9.36777 64.0333 15.2071 66.9629 22.2001C69.8926 29.193 70.4482 36.9538 68.5446 44.2927C67.4952 48.3352 62.5716 49.4737 59.7732 46.7545L59.4597 46.4245L52.0314 37.8874C48.7215 34.0858 52.1106 28.3504 56.9088 29.215L57.3477 29.314L59.0571 29.7562C57.7687 24.4459 54.7591 19.7112 50.4977 16.2906C46.2363 12.87 40.9627 10.9559 35.4994 10.8467C30.036 10.7375 24.6902 12.4394 20.2955 15.687C15.9009 18.9346 12.7045 23.5453 11.205 28.7999C9.70544 34.0546 9.98704 39.6577 12.0058 44.7355C14.0247 49.8134 17.6672 54.0803 22.3653 56.8709C27.0634 59.6616 32.553 60.8189 37.9778 60.1626C43.4027 59.5062 48.4578 57.0729 52.3548 53.2423C52.8182 52.7864 53.367 52.4263 53.9696 52.1825C54.5723 51.9386 55.2171 51.8159 55.8672 51.8213C56.5173 51.8266 57.16 51.96 57.7585 52.2137C58.3571 52.4675 58.8998 52.8366 59.3557 53.3001C59.8116 53.7636 60.1717 54.3123 60.4156 54.915C60.6594 55.5176 60.7821 56.1624 60.7768 56.8125C60.7714 57.4626 60.6381 58.1053 60.3843 58.7039C60.1306 59.3024 59.7614 59.8451 59.298 60.301C48.4707 70.9534 31.479 73.5604 17.6751 65.5909C1.10246 56.0209 -4.57684 34.8349 4.99316 18.259ZM35.0001 14.134C36.23 14.134 37.416 14.5919 38.3268 15.4186C39.2376 16.2452 39.8081 17.3813 39.927 18.6055L39.9501 19.084V33.5347L46.7481 40.3327C47.6493 41.229 48.1713 42.4377 48.2058 43.7084C48.2402 44.979 47.7846 46.2142 46.9332 47.1581C46.0818 48.1019 44.9 48.6821 43.6325 48.7784C42.3651 48.8746 41.1091 48.4797 40.125 47.6752L39.7488 47.3353L31.4988 39.0853C30.6895 38.276 30.1858 37.2113 30.0732 36.0724L30.0501 35.584V19.084C30.0501 17.7712 30.5716 16.5122 31.4999 15.5839C32.4282 14.6556 33.6872 14.134 35.0001 14.134Z" fill="#A4AFCE"/>
</svg>
