<svg width="106" height="106" viewBox="0 0 106 106" fill="none" xmlns="http://www.w3.org/2000/svg">
<path d="M90.2001 83.79V46.305C90.2001 45.6203 90.0407 44.9451 89.7346 44.3328C89.4284 43.7204 88.9839 43.1877 88.4361 42.777L57.5662 19.6244C56.8028 19.0519 55.8744 18.7424 54.9202 18.7424C53.966 18.7424 53.0375 19.0519 52.2742 19.6244L21.4042 42.777C20.8565 43.1877 20.4119 43.7204 20.1058 44.3328C19.7996 44.9451 19.6402 45.6203 19.6402 46.305V83.79C19.6402 84.9596 20.1048 86.0813 20.9319 86.9084C21.7589 87.7354 22.8806 88.2 24.0502 88.2H41.6902C42.8598 88.2 43.9815 87.7354 44.8085 86.9084C45.6356 86.0813 46.1002 84.9596 46.1002 83.79V70.56C46.1002 69.3904 46.5648 68.2687 47.3918 67.4417C48.2189 66.6146 49.3406 66.15 50.5102 66.15H59.3302C60.4998 66.15 61.6215 66.6146 62.4485 67.4417C63.2755 68.2687 63.7402 69.3904 63.7402 70.56V83.79C63.7402 84.9596 64.2048 86.0813 65.0318 86.9084C65.8589 87.7354 66.9806 88.2 68.1502 88.2H85.7902C86.9598 88.2 88.0815 87.7354 88.9085 86.9084C89.7355 86.0813 90.2001 84.9596 90.2001 83.79Z" fill="black" fill-opacity="0.5" stroke="black" stroke-opacity="0.5" stroke-width="2" stroke-linecap="round" stroke-linejoin="round"/>
</svg>
