<svg width="133" height="133" viewBox="0 0 133 133" fill="none" xmlns="http://www.w3.org/2000/svg">
<rect width="133" height="133" rx="26.6" fill="#181F2C"/>
<g clip-path="url(#clip0_18_68)">
<path d="M66.4996 106.826C88.7709 106.826 106.825 88.7716 106.825 66.5003C106.825 44.229 88.7709 26.1746 66.4996 26.1746C44.2284 26.1746 26.1739 44.229 26.1739 66.5003C26.1739 88.7716 44.2284 106.826 66.4996 106.826Z" fill="white"/>
<path d="M66.5 21.28C57.5563 21.28 48.8135 23.9321 41.3771 28.901C33.9407 33.8698 28.1447 40.9322 24.7222 49.1951C21.2996 57.458 20.4041 66.5502 22.1489 75.322C23.8937 84.0938 28.2005 92.1513 34.5246 98.4754C40.8487 104.8 48.9062 109.106 57.678 110.851C66.4498 112.596 75.542 111.7 83.8049 108.278C92.0678 104.855 99.1302 99.0593 104.099 91.6229C109.068 84.1865 111.72 75.4437 111.72 66.5C111.737 60.5789 110.588 54.7123 108.338 49.2353C106.088 43.7583 102.781 38.7781 98.6068 34.579C94.4321 30.38 89.4713 27.0443 84.0074 24.7624C78.5436 22.4806 72.6839 21.2973 66.7628 21.28H66.5ZM67.2664 68.0329L62.5583 83.9092H87.7413C87.9081 83.9033 88.0745 83.9304 88.2308 83.9889C88.3872 84.0474 88.5304 84.1361 88.6525 84.25C88.7745 84.3639 88.8729 84.5007 88.942 84.6526C89.0111 84.8046 89.0496 84.9687 89.0552 85.1355V85.5516L86.8654 93.1065C86.7688 93.4637 86.5537 93.7776 86.2552 93.9964C85.9568 94.2153 85.5928 94.3262 85.223 94.3109H46.682L53.142 72.3031L45.9156 74.4929L47.5579 69.4563L54.7844 67.2665L63.8722 36.3899C63.9722 36.0346 64.1883 35.723 64.4859 35.5047C64.7835 35.2865 65.1456 35.1741 65.5146 35.1855H75.2593C75.4261 35.1796 75.5925 35.2067 75.7488 35.2652C75.9051 35.3236 76.0484 35.4124 76.1704 35.5263C76.2925 35.6402 76.3908 35.777 76.46 35.9289C76.5291 36.0809 76.5675 36.2449 76.5732 36.4118V36.8278L68.9088 62.8868L76.1352 60.697L74.6024 65.9526L67.2664 68.0329Z" fill="#181F2C"/>
</g>
<defs>
<clipPath id="clip0_18_68">
<rect width="90.44" height="90.44" fill="white" transform="translate(21.28 21.28)"/>
</clipPath>
</defs>
</svg>
