<svg width="66" height="60" viewBox="0 0 66 60" fill="none" xmlns="http://www.w3.org/2000/svg">
<path d="M35.9708 59.5989C52.3782 59.5989 65.6782 46.2989 65.6782 29.8915C65.6782 13.4841 52.3782 0.18409 35.9708 0.18409C31.3582 0.180625 26.8085 1.25288 22.6829 3.31567C18.5573 5.37846 14.9696 8.37494 12.2048 12.0671H20.2556C23.6861 9.04213 27.9166 7.07133 32.4394 6.39116C36.9623 5.71098 41.5853 6.35032 45.7538 8.23246C49.9223 10.1146 53.4591 13.1596 55.9399 17.002C58.4207 20.8444 59.7401 25.3211 59.7397 29.8948C59.7393 34.4685 58.4192 38.9449 55.9378 42.7869C53.4563 46.629 49.919 49.6733 45.7502 51.5548C41.5814 53.4362 36.9582 54.0748 32.4355 53.3939C27.9128 52.7129 23.6826 50.7414 20.2526 47.7159H12.2019C14.9669 51.4085 18.5551 54.4052 22.6812 56.468C26.8074 58.5308 31.3577 59.6028 35.9708 59.5989ZM15.1756 41.7745V32.8622H38.9415V26.9208H15.1756V18.0085L0.321877 29.8915L15.1756 41.7745Z" fill="#A4AFCE"/>
</svg>
