<svg width="145" height="213" viewBox="0 0 145 213" fill="none" xmlns="http://www.w3.org/2000/svg">
<path d="M14.5975 181.021C20.2197 181.021 23.6743 184.509 23.6743 190.944V205H20.3213V191.046C20.3213 186.372 17.8489 184.035 13.9201 184.035C9.72035 184.035 6.94311 186.44 6.94311 191.554V205H3.55623V181.292H6.80763V184.645C8.4672 182.139 11.1428 181.021 14.5975 181.021ZM37.7926 205.203C32.4074 205.203 28.4448 201.376 28.4448 196.025C28.4448 190.673 32.4074 186.88 37.7926 186.88C43.1777 186.88 47.1065 190.673 47.1065 196.025C47.1065 201.376 43.1777 205.203 37.7926 205.203ZM37.7926 202.358C41.2472 202.358 43.8212 199.852 43.8212 196.025C43.8212 192.198 41.2472 189.725 37.7926 189.725C34.3379 189.725 31.7301 192.198 31.7301 196.025C31.7301 199.852 34.3379 202.358 37.7926 202.358ZM61.1729 205V181.292H71.1642C78.7847 181.292 83.9666 186.101 83.9666 193.146C83.9666 200.191 78.7847 205 71.1642 205H61.1729ZM64.5598 202.053H70.961C76.8203 202.053 80.5797 198.463 80.5797 193.146C80.5797 187.829 76.8203 184.238 70.961 184.238H64.5598V202.053ZM102.363 187.05H105.615V205H102.499V202.155C101.042 204.187 98.7392 205.203 96.0975 205.203C90.8478 205.203 87.0206 201.512 87.0206 196.025C87.0206 190.538 90.8478 186.88 96.0975 186.88C98.6376 186.88 100.873 187.829 102.363 189.759V187.05ZM96.3684 202.358C99.7892 202.358 102.397 199.852 102.397 196.025C102.397 192.198 99.7892 189.725 96.3684 189.725C92.9138 189.725 90.3059 192.198 90.3059 196.025C90.3059 199.852 92.9138 202.358 96.3684 202.358ZM120.2 201.613L121.216 203.95C120.234 204.797 118.744 205.203 117.287 205.203C113.663 205.203 111.597 203.205 111.597 199.581V183.121H114.849V187.05H119.997V189.725H114.849V199.446C114.849 201.376 115.831 202.46 117.66 202.46C118.608 202.46 119.523 202.155 120.2 201.613ZM138.217 187.05H141.468V205H138.352V202.155C136.896 204.187 134.593 205.203 131.951 205.203C126.701 205.203 122.874 201.512 122.874 196.025C122.874 190.538 126.701 186.88 131.951 186.88C134.491 186.88 136.726 187.829 138.217 189.759V187.05ZM132.222 202.358C135.642 202.358 138.25 199.852 138.25 196.025C138.25 192.198 135.642 189.725 132.222 189.725C128.767 189.725 126.159 192.198 126.159 196.025C126.159 199.852 128.767 202.358 132.222 202.358Z" fill="#26478D"/>
<path d="M36 99C36 96.6131 36.9482 94.3239 38.636 92.636C40.3239 90.9482 42.6131 90 45 90C47.3869 90 49.6761 90.9482 51.364 92.636C53.0518 94.3239 54 96.6131 54 99V108C54 110.387 53.0518 112.676 51.364 114.364C49.6761 116.052 47.3869 117 45 117C42.6131 117 40.3239 116.052 38.636 114.364C36.9482 112.676 36 110.387 36 108V99ZM90 63C90 60.6131 90.9482 58.3239 92.636 56.636C94.3239 54.9482 96.6131 54 99 54C101.387 54 103.676 54.9482 105.364 56.636C107.052 58.3239 108 60.6131 108 63V108C108 110.387 107.052 112.676 105.364 114.364C103.676 116.052 101.387 117 99 117C96.6131 117 94.3239 116.052 92.636 114.364C90.9482 112.676 90 110.387 90 108V63ZM63 81C63 78.6131 63.9482 76.3239 65.636 74.636C67.3239 72.9482 69.6131 72 72 72C74.3869 72 76.6761 72.9482 78.364 74.636C80.0518 76.3239 81 78.6131 81 81V108C81 110.387 80.0518 112.676 78.364 114.364C76.6761 116.052 74.3869 117 72 117C69.6131 117 67.3239 116.052 65.636 114.364C63.9482 112.676 63 110.387 63 108V81Z" fill="#A4AFCE"/>
<path d="M36 13.5H27C22.2261 13.5 17.6477 15.3964 14.2721 18.7721C10.8964 22.1477 9 26.7261 9 31.5V126C9 130.774 10.8964 135.352 14.2721 138.728C17.6477 142.104 22.2261 144 27 144H117C121.774 144 126.352 142.104 129.728 138.728C133.104 135.352 135 130.774 135 126V31.5C135 26.7261 133.104 22.1477 129.728 18.7721C126.352 15.3964 121.774 13.5 117 13.5H108V22.5H117C119.387 22.5 121.676 23.4482 123.364 25.136C125.052 26.8239 126 29.1131 126 31.5V126C126 128.387 125.052 130.676 123.364 132.364C121.676 134.052 119.387 135 117 135H27C24.6131 135 22.3239 134.052 20.636 132.364C18.9482 130.676 18 128.387 18 126V31.5C18 29.1131 18.9482 26.8239 20.636 25.136C22.3239 23.4482 24.6131 22.5 27 22.5H36V13.5Z" fill="#A4AFCE"/>
<path d="M85.5 9C86.6935 9 87.8381 9.47411 88.682 10.318C89.5259 11.1619 90 12.3065 90 13.5V22.5C90 23.6935 89.5259 24.8381 88.682 25.682C87.8381 26.5259 86.6935 27 85.5 27H58.5C57.3065 27 56.1619 26.5259 55.318 25.682C54.4741 24.8381 54 23.6935 54 22.5V13.5C54 12.3065 54.4741 11.1619 55.318 10.318C56.1619 9.47411 57.3065 9 58.5 9H85.5ZM58.5 0C54.9196 0 51.4858 1.42232 48.9541 3.95406C46.4223 6.4858 45 9.91958 45 13.5V22.5C45 26.0804 46.4223 29.5142 48.9541 32.0459C51.4858 34.5777 54.9196 36 58.5 36H85.5C89.0804 36 92.5142 34.5777 95.0459 32.0459C97.5777 29.5142 99 26.0804 99 22.5V13.5C99 9.91958 97.5777 6.4858 95.0459 3.95406C92.5142 1.42232 89.0804 0 85.5 0L58.5 0Z" fill="#A4AFCE"/>
</svg>
