<svg width="78" height="78" viewBox="0 0 78 78" fill="none" xmlns="http://www.w3.org/2000/svg">
<rect x="0.600098" y="0.600006" width="76.8" height="76.8" rx="16" fill="white"/>
<path fill-rule="evenodd" clip-rule="evenodd" d="M45.4723 54.7568C45.4726 55.8418 45.0628 56.8869 44.325 57.6825C43.5872 58.4781 42.576 58.9655 41.494 59.0468L41.1715 59.0576H36.8707C35.7856 59.0579 34.7405 58.6481 33.9449 57.9104C33.1493 57.1726 32.662 56.1613 32.5806 55.0794L32.5698 54.7568H45.4723ZM39.0211 18.2C42.924 18.1999 46.6744 19.7158 49.4811 22.4278C52.2878 25.1399 53.9315 28.8361 54.0653 32.7367L54.0739 33.2528V41.3469L57.9919 49.183C58.1629 49.5249 58.2485 49.9031 58.2413 50.2854C58.2341 50.6676 58.1344 51.0424 57.9507 51.3776C57.767 51.7129 57.5048 51.9986 57.1866 52.2104C56.8683 52.4221 56.5034 52.5536 56.1232 52.5935L55.8759 52.6064H22.1662C21.7838 52.6065 21.407 52.5139 21.0682 52.3365C20.7295 52.1591 20.4387 51.9022 20.221 51.5879C20.0032 51.2735 19.8649 50.911 19.818 50.5315C19.771 50.152 19.8167 49.7667 19.9513 49.4088L20.0502 49.183L23.9682 41.3469V33.2528C23.9682 29.2605 25.5541 25.4318 28.3771 22.6089C31.2001 19.7859 35.0288 18.2 39.0211 18.2ZM39.0211 22.5008C36.2503 22.501 33.5866 23.5707 31.5854 25.487C29.5842 27.4032 28.4 30.0181 28.2798 32.7862L28.269 33.2528V41.3469C28.2691 41.8802 28.1699 42.4089 27.9766 42.9059L27.8153 43.2715L25.2993 48.3056H52.7449L50.229 43.2694C49.9903 42.7926 49.8423 42.2756 49.7924 41.7447L49.7731 41.3469V33.2528C49.7731 30.4012 48.6403 27.6664 46.6239 25.65C44.6075 23.6336 41.8727 22.5008 39.0211 22.5008Z" fill="#2240C4"/>
</svg>
