<svg width="72" height="73" viewBox="0 0 72 73" fill="none" xmlns="http://www.w3.org/2000/svg">
<path fill-rule="evenodd" clip-rule="evenodd" d="M37.623 36.516C37.689 35.274 36.633 34.2 35.298 34.146C33.888 34.086 32.817 35.121 32.793 36.552C32.772 37.821 33.804 38.826 35.163 38.868C36.513 38.91 37.548 37.917 37.623 36.516ZM51.642 16.35L51.483 16.23C51.324 16.362 51.156 16.491 51.003 16.635C45.261 21.996 39.51 27.348 33.78 32.727C33.103 33.3427 32.51 34.0447 32.016 34.815C27.813 41.736 23.649 48.684 19.479 55.623C19.308 55.905 19.173 56.205 19.02 56.499C19.1154 56.5001 19.2101 56.4824 19.2986 56.4469C19.3871 56.4114 19.4678 56.3587 19.536 56.292C25.356 50.856 31.185 45.432 36.978 39.963C37.733 39.2276 38.3885 38.3965 38.928 37.491C43.041 30.723 47.118 23.928 51.204 17.142C51.36 16.884 51.498 16.614 51.642 16.35ZM51.432 13.068C57.429 17.25 61.185 22.839 63.102 29.889C62.403 30.06 61.752 30.168 61.146 30.39C60.885 30.486 60.711 30.822 60.498 31.047C60.78 31.17 61.077 31.419 61.347 31.398C61.965 31.338 62.571 31.149 63.312 30.984C64.662 38.205 63.516 44.871 59.763 51.171C59.178 50.817 58.692 50.445 58.152 50.22C57.792 50.07 57.354 50.121 56.952 50.085C57.147 50.412 57.282 50.811 57.558 51.054C58.002 51.441 58.539 51.726 59.157 52.134C55.032 58.164 49.512 62.106 42.357 64.017C42.147 63.219 41.994 62.439 41.721 61.698C41.622 61.428 41.25 61.257 40.998 61.038C40.92 61.338 40.737 61.656 40.776 61.938C40.881 62.664 41.085 63.378 41.286 64.26C33.993 65.619 27.219 64.545 20.781 60.69C21.273 59.922 21.771 59.241 22.155 58.5C22.314 58.197 22.23 57.768 22.257 57.396C21.918 57.576 21.48 57.681 21.261 57.957C20.76 58.581 20.367 59.295 19.851 60.096C13.734 55.908 9.825 50.271 7.902 43.056C8.832 42.84 9.624 42.696 10.38 42.447C10.635 42.363 10.8 42.009 11.01 41.775C10.71 41.676 10.398 41.463 10.113 41.499C9.354 41.598 8.607 41.799 7.722 41.991C6.378 34.671 7.536 27.903 11.475 21.504C12.045 21.864 12.537 22.254 13.095 22.506C13.527 22.704 14.037 22.728 14.514 22.83C14.226 22.41 13.998 21.93 13.632 21.594C13.197 21.201 12.642 20.937 12.057 20.565C16.332 14.589 21.912 10.662 29.181 8.88003C29.349 9.60303 29.442 10.293 29.676 10.929C29.811 11.286 30.171 11.553 30.429 11.859C30.519 11.499 30.705 11.124 30.669 10.773C30.603 10.113 30.408 9.47103 30.234 8.67903C37.479 7.41003 44.175 8.59503 50.487 12.444C50.037 13.17 49.581 13.824 49.227 14.529C49.101 14.775 49.236 15.153 49.251 15.468C49.521 15.348 49.875 15.3 50.037 15.099C50.517 14.496 50.916 13.833 51.432 13.068ZM35.535 68.244C53.163 68.202 67.293 53.964 67.266 36.267C67.242 18.951 52.917 4.74603 35.499 4.77003C17.808 4.79403 3.75 19.014 3.792 36.834C3.837 54.09 18.183 68.286 35.535 68.244ZM35.508 0.98403C55.026 0.96303 71.043 16.905 71.058 36.366C71.0811 45.7998 67.3567 54.8567 60.7037 61.5451C54.0507 68.2336 45.0138 72.006 35.58 72.033C15.984 72.129 0 56.118 0 36.384C0 16.893 15.936 1.00503 35.508 0.98703" fill="#A4AFCE"/>
</svg>
