<svg width="125" height="125" viewBox="0 0 125 125" fill="none" xmlns="http://www.w3.org/2000/svg">
<path d="M62.22 124.44C96.5832 124.44 124.44 96.5832 124.44 62.22C124.44 27.8569 96.5832 0 62.22 0C27.8568 0 0 27.8569 0 62.22C0 96.5832 27.8568 124.44 62.22 124.44Z" fill="#2240C4"/>
<path d="M62.22 117.746C92.8864 117.746 117.746 92.8864 117.746 62.22C117.746 31.5536 92.8864 6.6936 62.22 6.6936C31.5536 6.6936 6.6936 31.5536 6.6936 62.22C6.6936 92.8864 31.5536 117.746 62.22 117.746Z" fill="white"/>
<path d="M75.544 41.3713C75.1912 34.2737 69.3648 28.5921 62.2088 28.4721C54.612 28.3449 48.3952 34.8145 48.3952 42.4129V53.9329H40.3952V42.5121C40.3952 30.7681 49.5856 20.828 61.3248 20.48C73.2608 20.1256 83.1288 29.5184 83.5472 41.276C83.5624 41.7016 83.2104 42.0528 82.7848 42.0528H76.2416C75.8616 42.0528 75.5624 41.7505 75.544 41.3713Z" fill="#2240C4"/>
<path d="M62.1944 24.3984C52.536 24.3984 44.6776 32.368 44.6776 42.1648V51.944H48.3952V42.4128C48.3952 34.8152 54.612 28.3448 62.2088 28.472C69.3472 28.592 75.1616 34.2448 75.5408 41.3176C75.5624 41.7264 75.8856 42.0528 76.2952 42.0528L79.696 42.0544C79.696 32.2584 71.8528 24.3984 62.1944 24.3984Z" fill="#2240C4"/>
<path d="M85.8872 48.5801H38.5536C36.484 48.5801 34.8064 50.2577 34.8064 52.3273V93.8233C34.8064 95.8929 36.484 97.5705 38.5536 97.5705H85.8872C87.9568 97.5705 89.6352 95.8929 89.6352 93.8233V52.3273C89.6344 50.2577 87.9568 48.5801 85.8872 48.5801ZM65.1264 73.6809V80.2001C65.1264 81.8049 63.8256 83.1057 62.2208 83.1057C60.616 83.1057 59.3152 81.8049 59.3152 80.2001V73.6809C57.6344 72.6849 56.5032 70.8585 56.5032 68.7633C56.5032 65.6057 59.0632 63.0457 62.2208 63.0457C65.3784 63.0457 67.9384 65.6057 67.9384 68.7633C67.9376 70.8585 66.8072 72.6849 65.1264 73.6809Z" fill="#2240C4"/>
<path d="M89.6344 93.8232V52.3272C89.6344 50.2576 87.9568 48.5792 85.8864 48.5792H85.4784C86.5712 57.9416 88.0072 88.124 62.8808 97.5704H85.8864C87.9568 97.5712 89.6344 95.8928 89.6344 93.8232Z" fill="#2240C4"/>
<path d="M34.8056 52.3273V93.8233C34.8056 95.8929 36.4832 97.5713 38.5536 97.5713H38.8808C35.4696 59.1145 54.5864 48.5801 54.5864 48.5801H38.5536C36.484 48.5801 34.8056 50.2577 34.8056 52.3273Z" fill="#2240C4"/>
</svg>
