<svg width="84" height="87" viewBox="0 0 84 87" fill="none" xmlns="http://www.w3.org/2000/svg">
<path fill-rule="evenodd" clip-rule="evenodd" d="M38.4513 -0.656736C39.5981 -1.29353 40.8882 -1.62769 42.2 -1.62769C43.5117 -1.62769 44.8018 -1.29353 45.9486 -0.656736L79.6446 18.0633C82.0969 19.4251 83.6179 22.0085 83.6179 24.8165V61.9757C83.6179 64.7837 82.0969 67.3671 79.6446 68.729L45.9486 87.449C44.8018 88.0857 43.5117 88.4199 42.2 88.4199C40.8882 88.4199 39.5981 88.0857 38.4513 87.449L4.7553 68.729C3.55078 68.0601 2.54714 67.0812 1.84848 65.8937C1.14982 64.7062 0.781592 63.3535 0.781983 61.9757V24.8165C0.781983 22.0085 2.30298 19.4251 4.7553 18.0633L38.4513 -0.656736ZM42.5416 5.48342C42.4371 5.42523 42.3195 5.39468 42.2 5.39468C42.0804 5.39468 41.9628 5.42523 41.8583 5.48342L8.16234 24.2034C8.05381 24.2639 7.96327 24.3521 7.89996 24.4589C7.83665 24.5658 7.80284 24.6876 7.80198 24.8118V61.9757C7.80198 62.2331 7.94238 62.4671 8.16234 62.5935L41.8583 81.3135C41.9628 81.3717 42.0804 81.4022 42.2 81.4022C42.3195 81.4022 42.4371 81.3717 42.5416 81.3135L76.2376 62.5935C76.3475 62.5322 76.4389 62.4426 76.5023 62.3339C76.5657 62.2252 76.5987 62.1015 76.5979 61.9757V24.8165C76.5979 24.6915 76.5645 24.5687 76.5011 24.461C76.4378 24.3532 76.3468 24.2643 76.2376 24.2034L42.5416 5.48342Z" fill="black" fill-opacity="0.5"/>
<path fill-rule="evenodd" clip-rule="evenodd" d="M19.97 43.396C19.97 37.5003 22.3121 31.846 26.481 27.677C30.6499 23.5081 36.3042 21.166 42.2 21.166C48.0957 21.166 53.75 23.5081 57.9189 27.677C62.0879 31.846 64.43 37.5003 64.43 43.396C64.43 49.2918 62.0879 54.9461 57.9189 59.115C53.75 63.2839 48.0957 65.626 42.2 65.626C36.3042 65.626 30.6499 63.2839 26.481 59.115C22.3121 54.9461 19.97 49.2918 19.97 43.396ZM42.2 28.186C38.166 28.186 34.2973 29.7885 31.4449 32.6409C28.5924 35.4934 26.99 39.3621 26.99 43.396C26.99 47.43 28.5924 51.2987 31.4449 54.1511C34.2973 57.0035 38.166 58.606 42.2 58.606C46.2339 58.606 50.1026 57.0035 52.955 54.1511C55.8075 51.2987 57.41 47.43 57.41 43.396C57.41 39.3621 55.8075 35.4934 52.955 32.6409C50.1026 29.7885 46.2339 28.186 42.2 28.186Z" fill="black" fill-opacity="0.5"/>
</svg>
