<svg width="134" height="134" viewBox="0 0 134 134" fill="none" xmlns="http://www.w3.org/2000/svg">
<rect x="0.410004" y="0.5" width="133" height="133" rx="26.6" fill="url(#paint0_linear_19_101)"/>
<path d="M84.4705 56.1898C84.1726 56.4877 83.7725 56.6579 83.3554 56.6579H43.8172C42.4212 56.6579 41.7147 54.9555 42.6851 53.9426L49.1712 47.2266C49.4691 46.9202 49.8777 46.7415 50.3033 46.7415H89.9862C91.3907 46.7415 92.0972 48.4609 91.1013 49.4738L84.4705 56.1898ZM84.4705 86.2031C84.1726 86.4925 83.7725 86.6627 83.3554 86.6627H43.8172C42.4212 86.6627 41.7147 85.0029 42.6851 84.0155L49.1712 77.4613C49.4691 77.1633 49.8777 76.9931 50.3033 76.9931H89.9862C91.3907 76.9931 92.0972 78.67 91.1013 79.6574L84.4705 86.2031ZM83.3554 61.8673C83.7725 61.8673 84.1726 62.029 84.4705 62.3269L91.1013 68.8812C92.0972 69.86 91.3907 71.5454 89.9862 71.5454H50.3033C49.8777 71.5454 49.4691 71.3752 49.1712 71.0773L42.6851 64.523C41.7062 63.5356 42.4127 61.8758 43.8172 61.8758L83.3554 61.8673Z" fill="#00FFAD"/>
<path fill-rule="evenodd" clip-rule="evenodd" d="M44.0297 62.9395H83.4147C83.9084 62.9395 84.3765 63.1353 84.717 63.4843L90.9478 69.7576C92.0969 70.9153 91.2798 72.89 89.6455 72.89H50.2604C49.7667 72.89 49.2986 72.6943 48.9581 72.3453L42.7273 66.0719C41.5697 64.9143 42.3954 62.9395 44.0297 62.9395ZM42.7273 54.6233L48.9581 48.3499C49.3071 48.001 49.7753 47.8052 50.2604 47.8052H89.637C91.2713 47.8052 92.0969 49.78 90.9393 50.9376L84.717 57.2109C84.368 57.5599 83.8999 57.7557 83.4147 57.7557H44.0297C42.3954 57.7557 41.5697 55.7809 42.7273 54.6233ZM90.9393 81.2063L84.7085 87.4796C84.3595 87.8286 83.8914 88.0244 83.4062 88.0244H44.0297C42.3954 88.0244 41.5697 86.0496 42.7273 84.892L48.9581 78.6186C49.3071 78.2696 49.7753 78.0738 50.2604 78.0738H89.637C91.2713 78.0738 92.0969 80.0486 90.9393 81.2063Z" fill="url(#paint1_linear_19_101)"/>
<defs>
<linearGradient id="paint0_linear_19_101" x1="157.35" y1="-26.1" x2="-27.52" y2="149.46" gradientUnits="userSpaceOnUse">
<stop stop-color="#18EEB4" stop-opacity="0.3"/>
<stop offset="1" stop-color="#C355E6" stop-opacity="0.3"/>
</linearGradient>
<linearGradient id="paint1_linear_19_101" x1="44.9932" y1="89.7549" x2="88.6734" y2="46.0747" gradientUnits="userSpaceOnUse">
<stop stop-color="#CB4EE8"/>
<stop offset="1" stop-color="#10F4B1"/>
</linearGradient>
</defs>
</svg>
