<svg width="125" height="125" viewBox="0 0 125 125" fill="none" xmlns="http://www.w3.org/2000/svg">
<path d="M62.22 124.44C96.5832 124.44 124.44 96.5832 124.44 62.22C124.44 27.8569 96.5832 0 62.22 0C27.8568 0 0 27.8569 0 62.22C0 96.5832 27.8568 124.44 62.22 124.44Z" fill="#2240C4"/>
<path d="M62.22 117.598C92.8864 117.598 117.746 92.7377 117.746 62.0713C117.746 31.405 92.8864 6.54492 62.22 6.54492C31.5536 6.54492 6.6936 31.405 6.6936 62.0713C6.6936 92.7377 31.5536 117.598 62.22 117.598Z" fill="white"/>
<path d="M36.232 52.6042C36.232 45.6534 38.9932 38.9873 43.9081 34.0724C48.8231 29.1574 55.4892 26.3962 62.44 26.3962C69.3908 26.3962 76.0569 29.1574 80.9718 34.0724C85.8868 38.9873 88.648 45.6534 88.648 52.6042V56.4793C94.9978 57.3891 99.88 62.8516 99.88 69.4522V70.3882C99.88 77.0338 94.1479 82.8595 87.405 82.5487C84.6344 90.486 77.5882 95.8362 69.9841 97.1915C68.2245 97.8355 66.1428 97.5322 64.312 97.5322C62.8225 97.5322 61.3941 96.9405 60.3409 95.8873C59.2877 94.8341 58.696 93.4057 58.696 91.9162C58.696 90.4268 59.2877 88.9983 60.3409 87.9451C61.3941 86.8919 62.8225 86.3002 64.312 86.3002C67.281 86.3002 70.5682 85.8697 72.575 88.5803C77.4272 86.2703 81.16 81.3918 81.16 75.0682V52.6042C81.16 47.6394 79.1877 42.8779 75.677 39.3672C72.1663 35.8565 67.4048 33.8842 62.44 33.8842C57.4751 33.8842 52.7136 35.8565 49.203 39.3672C45.6923 42.8779 43.72 47.6394 43.72 52.6042V76.0042C43.72 77.7419 43.0297 79.4084 41.801 80.6372C40.5722 81.8659 38.9057 82.5562 37.168 82.5562C33.9408 82.5562 30.8459 81.2742 28.5639 78.9923C26.282 76.7104 25 73.6154 25 70.3882V69.4522C24.9992 66.3006 26.1343 63.2542 28.1972 60.8716C30.2601 58.4889 33.1127 56.9295 36.232 56.4793V52.6042Z" fill="#2240C4"/>
</svg>
