<svg width="97" height="97" viewBox="0 0 97 97" fill="none" xmlns="http://www.w3.org/2000/svg">
<path d="M88.7041 88.7639H8.0641" stroke="#26478D" stroke-width="6.048" stroke-linecap="round"/>
<path d="M84.6721 88.7638V58.5238C84.6721 56.9197 84.0349 55.3814 82.9007 54.2472C81.7664 53.113 80.2281 52.4758 78.6241 52.4758H66.5281C64.9241 52.4758 63.3857 53.113 62.2515 54.2472C61.1173 55.3814 60.4801 56.9197 60.4801 58.5238V88.7638V20.2198C60.4801 14.5185 60.4801 11.6679 58.706 9.89786C56.94 8.12378 54.0894 8.12378 48.3841 8.12378C42.6828 8.12378 39.8322 8.12378 38.0622 9.89786C36.2881 11.6639 36.2881 14.5145 36.2881 20.2198V88.7638V38.3638C36.2881 36.7597 35.6509 35.2214 34.5167 34.0872C33.3825 32.953 31.8441 32.3158 30.2401 32.3158H18.1441C16.5401 32.3158 15.0017 32.953 13.8675 34.0872C12.7333 35.2214 12.0961 36.7597 12.0961 38.3638V88.7638" stroke="#26478D" stroke-width="6.048"/>
</svg>
