<svg width="87" height="87" viewBox="0 0 87 87" fill="none" xmlns="http://www.w3.org/2000/svg">
<path d="M83.7041 83.7639H3.0641" stroke="#808080" stroke-width="6.048" stroke-linecap="round"/>
<path d="M79.6721 83.7638V53.5238C79.6721 51.9197 79.0349 50.3814 77.9007 49.2472C76.7664 48.113 75.2281 47.4758 73.6241 47.4758H61.5281C59.9241 47.4758 58.3857 48.113 57.2515 49.2472C56.1173 50.3814 55.4801 51.9197 55.4801 53.5238V83.7638V15.2198C55.4801 9.51853 55.4801 6.66791 53.706 4.89786C51.94 3.12378 49.0894 3.12378 43.3841 3.12378C37.6828 3.12378 34.8322 3.12378 33.0622 4.89786C31.2881 6.66387 31.2881 9.5145 31.2881 15.2198V83.7638V33.3638C31.2881 31.7597 30.6509 30.2214 29.5167 29.0872C28.3825 27.953 26.8441 27.3158 25.2401 27.3158H13.1441C11.5401 27.3158 10.0017 27.953 8.86753 29.0872C7.73331 30.2214 7.09611 31.7597 7.09611 33.3638V83.7638" stroke="#808080" stroke-width="6.048"/>
</svg>
