<svg width="61" height="60" viewBox="0 0 61 60" fill="none" xmlns="http://www.w3.org/2000/svg">
<path d="M30.015 60.009C13.446 60.009 0.0150146 46.578 0.0150146 30.009C0.0150146 13.44 13.446 0.0090332 30.015 0.0090332C46.584 0.0090332 60.015 13.44 60.015 30.009C60.015 46.578 46.584 60.009 30.015 60.009ZM30.015 54.009C36.3802 54.009 42.4847 51.4805 46.9856 46.9796C51.4865 42.4787 54.015 36.3742 54.015 30.009C54.015 23.6438 51.4865 17.5393 46.9856 13.0385C42.4847 8.5376 36.3802 6.00903 30.015 6.00903C23.6498 6.00903 17.5453 8.5376 13.0445 13.0385C8.54358 17.5393 6.01501 23.6438 6.01501 30.009C6.01501 36.3742 8.54358 42.4787 13.0445 46.9796C17.5453 51.4805 23.6498 54.009 30.015 54.009ZM15.015 33.009H42.015V39.009H30.015V48.009L15.015 33.009ZM30.015 21.009V12.009L45.015 27.009H18.015V21.009H30.015Z" fill="#A4AFCE"/>
</svg>
