<svg width="145" height="144" viewBox="0 0 145 144" fill="none" xmlns="http://www.w3.org/2000/svg">
<g clip-path="url(#clip0_39_167)">
<path d="M120.05 84C122.361 84.0011 124.584 84.8914 126.256 86.4864C127.929 88.0814 128.924 90.2588 129.035 92.5675C129.146 94.8761 128.365 97.139 126.853 98.8872C125.341 100.635 123.215 101.735 120.914 101.958L120.05 102H45.776L54.416 110.64C56.0526 112.271 56.9994 114.468 57.0604 116.778C57.1214 119.087 56.2919 121.332 54.7436 123.047C53.1954 124.762 51.0469 125.815 48.7432 125.99C46.4395 126.164 44.1569 125.446 42.368 123.984L41.684 123.366L18.71 100.386C12.866 94.542 16.67 84.684 24.656 84.036L25.496 84H120.05ZM89.69 20.64C91.2642 19.0644 93.3668 18.1284 95.591 18.0132C97.8153 17.8979 100.003 18.6115 101.732 20.016L102.416 20.634L125.39 43.614C131.234 49.458 127.43 59.316 119.444 59.964L118.604 60H24.05C21.7387 59.9988 19.5164 59.1085 17.8437 57.5135C16.1709 55.9185 15.1759 53.7411 15.0649 51.4325C14.9538 49.1239 15.7351 46.861 17.247 45.1128C18.759 43.3645 20.8855 42.265 23.186 42.042L24.05 42H98.324L89.684 33.36C87.9986 31.6725 87.0519 29.385 87.0519 27C87.0519 24.615 88.0046 22.3275 89.69 20.64Z" fill="#2240C4"/>
</g>
<defs>
<clipPath id="clip0_39_167">
<rect width="144" height="144" fill="white" transform="translate(0.0500488)"/>
</clipPath>
</defs>
</svg>
