<svg width="126" height="126" viewBox="0 0 126 126" fill="none" xmlns="http://www.w3.org/2000/svg">
<rect width="126" height="126" rx="25.2" fill="#212227"/>
<g clip-path="url(#clip0_18_19)">
<path d="M86.1619 35.7H95.6316L75.9244 55.2126C68.7876 62.2752 57.2166 62.2752 50.0747 55.2126L30.3598 35.7H39.8372L54.8095 50.5226C56.991 52.6726 59.9309 53.8778 62.9938 53.8778C66.0567 53.8778 68.9966 52.6726 71.178 50.5226L86.1619 35.7Z" fill="white"/>
<path d="M39.7161 89.9588H30.24L50.0752 70.3258C57.212 63.2632 68.7829 63.2632 75.9249 70.3258L95.76 89.9588H86.2903L71.19 75.0158C69.0086 72.8658 66.0687 71.6606 63.0058 71.6606C59.9429 71.6606 57.003 72.8658 54.8215 75.0158L39.7161 89.9588Z" fill="white"/>
</g>
<defs>
<clipPath id="clip0_18_19">
<rect width="65.52" height="65.52" fill="white" transform="translate(30.24 30.24)"/>
</clipPath>
</defs>
</svg>
