<svg width="39" height="39" viewBox="0 0 39 39" fill="none" xmlns="http://www.w3.org/2000/svg">
<path d="M4.00006 4H18.256V18.256H4.00006V4ZM7.16805 7.168V15.088H15.088V7.168H7.16805ZM28.552 7.168C27.5018 7.168 26.4945 7.58521 25.7519 8.32786C25.0092 9.0705 24.592 10.0777 24.592 11.128C24.592 12.1783 25.0092 13.1855 25.7519 13.9281C26.4945 14.6708 27.5018 15.088 28.552 15.088C29.6023 15.088 30.6095 14.6708 31.3521 13.9281C32.0948 13.1855 32.512 12.1783 32.512 11.128C32.512 10.0777 32.0948 9.0705 31.3521 8.32786C30.6095 7.58521 29.6023 7.168 28.552 7.168ZM21.424 11.128C21.424 10.1919 21.6084 9.26504 21.9666 8.40023C22.3248 7.53542 22.8499 6.74964 23.5118 6.08774C24.1737 5.42585 24.9594 4.9008 25.8242 4.54259C26.6891 4.18437 27.6159 4 28.552 4C29.4881 4 30.415 4.18437 31.2798 4.54259C32.1446 4.9008 32.9304 5.42585 33.5923 6.08774C34.2542 6.74964 34.7792 7.53542 35.1374 8.40023C35.4956 9.26504 35.68 10.1919 35.68 11.128C35.68 13.0185 34.929 14.8315 33.5923 16.1683C32.2555 17.505 30.4425 18.256 28.552 18.256C26.6616 18.256 24.8485 17.505 23.5118 16.1683C22.175 14.8315 21.424 13.0185 21.424 11.128ZM4.00006 21.424H18.256V35.68H4.00006V21.424ZM7.16805 24.592V32.512H15.088V24.592H7.16805ZM21.424 21.424H35.68V35.68H21.424V21.424ZM24.592 24.592V32.512H32.512V24.592H24.592Z" fill="#2240C4"/>
</svg>
